<svg width="27" height="28" viewBox="0 0 27 28" fill="none" xmlns="http://www.w3.org/2000/svg">
<path fill-rule="evenodd" clip-rule="evenodd" d="M23.0963 5.285C23.2453 5.11913 23.3264 4.89974 23.3226 4.67306C23.3187 4.44637 23.2302 4.23009 23.0756 4.06977C22.921 3.90946 22.7124 3.81763 22.4938 3.81363C22.2753 3.80963 22.0637 3.89377 21.9038 4.04833L3.90376 22.715C3.82086 22.7951 3.75437 22.8917 3.70825 22.999C3.66214 23.1064 3.63734 23.2222 3.63534 23.3397C3.63334 23.4572 3.65418 23.5739 3.69662 23.6829C3.73905 23.7918 3.80222 23.8908 3.88234 23.9739C3.96246 24.057 4.0579 24.1225 4.16296 24.1665C4.26802 24.2105 4.38055 24.2321 4.49384 24.23C4.60713 24.228 4.71886 24.2022 4.82236 24.1544C4.92586 24.1066 5.01901 24.0376 5.09626 23.9517L8.51063 20.4108C9.99338 21.1202 11.691 21.5833 13.5 21.5833C16.4453 21.5833 19.0935 20.3572 21.0015 18.8382C21.9578 18.0775 22.7419 17.2328 23.2909 16.4115C23.8309 15.6042 24.1875 14.7572 24.1875 14C24.1875 13.2428 23.8309 12.3958 23.2909 11.5897C22.7419 10.7672 21.9578 9.9225 21.0015 9.163C20.6978 8.92033 20.3738 8.68467 20.034 8.46183L23.0963 5.285ZM17.0213 11.5873L15.7838 12.8683C16.0093 13.3582 16.0829 13.9085 15.9944 14.4435C15.9059 14.9785 15.6596 15.4719 15.2895 15.8558C14.9194 16.2396 14.4436 16.495 13.9277 16.5868C13.4118 16.6786 12.8811 16.6023 12.4088 16.3683L11.1713 17.6517C11.9825 18.2087 12.9545 18.4578 13.9226 18.3568C14.8907 18.2558 15.7954 17.8109 16.4834 17.0974C17.1714 16.3839 17.6004 15.4457 17.6978 14.4418C17.7952 13.4378 17.555 12.4298 17.0179 11.5885L17.0213 11.5873Z" fill="black"/>
<path d="M14.2537 9.695C14.3 9.70399 14.3477 9.70126 14.3928 9.68704C14.4378 9.67282 14.4789 9.64754 14.5125 9.61333L16.7063 7.33833C16.7404 7.30355 16.7651 7.26009 16.7779 7.21231C16.7907 7.16452 16.7913 7.11408 16.7794 7.06602C16.7676 7.01796 16.7438 6.97396 16.7104 6.93843C16.677 6.90289 16.6353 6.87705 16.5893 6.8635C15.5839 6.56963 14.5445 6.4193 13.5 6.41666C10.5547 6.41666 7.9065 7.64283 5.9985 9.16183C5.04225 9.9225 4.25812 10.7672 3.708 11.5885C3.168 12.3958 2.8125 13.2428 2.8125 14C2.8125 14.7572 3.16912 15.6042 3.708 16.4103C4.24334 17.1895 4.87584 17.8917 5.589 18.4987C5.64236 18.5444 5.71033 18.5677 5.77947 18.5641C5.84861 18.5604 5.91392 18.53 5.9625 18.4788L9.27 15.0488C9.30298 15.014 9.32737 14.9714 9.34108 14.9247C9.35479 14.878 9.35742 14.8285 9.34875 14.7805C9.22684 14.0847 9.26939 13.3686 9.47275 12.6936C9.67611 12.0186 10.0342 11.4048 10.5164 10.9048C10.9986 10.4047 11.5905 10.0333 12.2414 9.82242C12.8923 9.61153 13.5828 9.5674 14.2537 9.69383V9.695Z" fill="black"/>
</svg>
