<svg width="239" height="222" viewBox="0 0 239 222" fill="none" xmlns="http://www.w3.org/2000/svg">
<path d="M203.999 189.489C220.712 173.965 232.093 154.187 236.704 132.655C241.315 111.123 238.948 88.8047 229.903 68.5221C220.859 48.2395 205.542 30.9037 185.891 18.7069C166.239 6.51004 143.135 1.65746e-06 119.5 0L119.5 111L203.999 189.489Z" fill="#EC0808"/>
<path d="M65.652 210.092C88.1807 220.655 113.731 224.321 138.641 220.567C163.551 216.812 186.542 205.829 204.319 189.191L119.5 111L65.652 210.092Z" fill="#B17E1C"/>
<path d="M6.09784 146.005C11.0468 159.838 18.8805 172.63 29.1517 183.651C39.4229 194.671 51.9305 203.705 65.9602 210.236L119.5 111L6.09784 146.005Z" fill="#B17E1C"/>
<path d="M5.12986 78.8267C-2.04473 100.832 -1.68569 124.363 6.1574 146.171L119.5 111L5.12986 78.8267Z" fill="#B17E1C"/>
<path d="M22.8192 45.76C14.9094 55.8735 8.89561 67.1554 5.0316 79.1296L119.5 111L22.8192 45.76Z" fill="#E33C82"/>
<path d="M119.5 0C100.642 -2.08887e-07 82.051 4.14574 65.2481 12.0983C48.4452 20.0508 33.9071 31.5843 22.8225 45.7558L119.5 111V0Z" fill="#E33C82"/>
<ellipse cx="119.15" cy="111" rx="58.0428" ry="53.9143" fill="white"/>
</svg>
