<svg width="27" height="28" viewBox="0 0 27 28" fill="none" xmlns="http://www.w3.org/2000/svg">
<path fill-rule="evenodd" clip-rule="evenodd" d="M23.0963 5.28501C23.2453 5.11914 23.3265 4.89976 23.3226 4.67307C23.3188 4.44639 23.2302 4.2301 23.0756 4.06979C22.921 3.90947 22.7125 3.81764 22.4939 3.81364C22.2753 3.80964 22.0637 3.89379 21.9038 4.04835L3.9038 22.715C3.8209 22.7951 3.75441 22.8917 3.7083 22.9991C3.66218 23.1064 3.63738 23.2223 3.63539 23.3397C3.63339 23.4572 3.65423 23.5739 3.69666 23.6829C3.7391 23.7918 3.80226 23.8908 3.88238 23.9739C3.9625 24.057 4.05794 24.1225 4.163 24.1665C4.26807 24.2105 4.3806 24.2321 4.49389 24.23C4.60718 24.228 4.71891 24.2023 4.82241 24.1544C4.92591 24.1066 5.01906 24.0377 5.0963 23.9517L8.51068 20.4109C9.99343 21.1202 11.6911 21.5833 13.5001 21.5833C16.4453 21.5833 19.0935 20.3572 21.0016 18.8382C21.9578 18.0775 22.7419 17.2328 23.2909 16.4115C23.8309 15.6042 24.1876 14.7572 24.1876 14C24.1876 13.2428 23.8309 12.3958 23.2909 11.5897C22.7419 10.7672 21.9578 9.92251 21.0016 9.16301C20.6978 8.92035 20.3738 8.68468 20.0341 8.46185L23.0963 5.28501ZM17.0213 11.5873L15.7838 12.8683C16.0094 13.3582 16.083 13.9085 15.9945 14.4435C15.906 14.9785 15.6597 15.4719 15.2895 15.8558C14.9194 16.2396 14.4436 16.495 13.9277 16.5868C13.4118 16.6786 12.8811 16.6023 12.4088 16.3683L11.1713 17.6517C11.9826 18.2087 12.9546 18.4578 13.9227 18.3568C14.8908 18.2558 15.7954 17.8109 16.4834 17.0974C17.1714 16.3839 17.6005 15.4457 17.6979 14.4418C17.7953 13.4378 17.5551 12.4298 17.0179 11.5885L17.0213 11.5873Z" fill="white"/>
<path d="M14.2537 9.69499C14.3 9.70398 14.3477 9.70125 14.3928 9.68703C14.4378 9.67282 14.4789 9.64753 14.5125 9.61332L16.7063 7.33832C16.7404 7.30354 16.7651 7.26009 16.7779 7.2123C16.7907 7.16452 16.7913 7.11408 16.7794 7.06601C16.7676 7.01795 16.7438 6.97396 16.7104 6.93842C16.677 6.90288 16.6353 6.87704 16.5893 6.86349C15.5839 6.56963 14.5445 6.4193 13.5 6.41666C10.5547 6.41666 7.9065 7.64282 5.9985 9.16182C5.04225 9.92249 4.25812 10.7672 3.708 11.5885C3.168 12.3958 2.8125 13.2428 2.8125 14C2.8125 14.7572 3.16912 15.6042 3.708 16.4103C4.24334 17.1895 4.87584 17.8917 5.589 18.4987C5.64236 18.5444 5.71033 18.5677 5.77947 18.5641C5.84861 18.5604 5.91392 18.53 5.9625 18.4788L9.27 15.0488C9.30298 15.014 9.32737 14.9714 9.34108 14.9247C9.35479 14.8779 9.35742 14.8285 9.34875 14.7805C9.22684 14.0847 9.26939 13.3686 9.47275 12.6936C9.67611 12.0186 10.0342 11.4048 10.5164 10.9047C10.9986 10.4047 11.5905 10.0333 12.2414 9.82242C12.8923 9.61152 13.5828 9.56739 14.2537 9.69382V9.69499Z" fill="white"/>
</svg>
