<svg width="30" height="31" viewBox="0 0 30 31" fill="none" xmlns="http://www.w3.org/2000/svg">
<path d="M27.2569 12.9703H26.25V12.9167H15V18.0833H22.0644C21.0338 21.091 18.2644 23.25 15 23.25C10.8581 23.25 7.5 19.7799 7.5 15.5C7.5 11.2201 10.8581 7.75 15 7.75C16.9119 7.75 18.6513 8.49529 19.9756 9.71268L23.5113 6.0592C21.2788 3.90922 18.2925 2.58333 15 2.58333C8.09688 2.58333 2.5 8.36677 2.5 15.5C2.5 22.6332 8.09688 28.4167 15 28.4167C21.9031 28.4167 27.5 22.6332 27.5 15.5C27.5 14.6339 27.4138 13.7885 27.2569 12.9703Z" fill="#FFC107"/>
<path d="M3.94125 9.48793L8.04812 12.6002C9.15937 9.75725 11.8506 7.74999 15 7.74999C16.9119 7.74999 18.6512 8.49529 19.9756 9.71268L23.5112 6.0592C21.2787 3.90922 18.2925 2.58333 15 2.58333C10.1988 2.58333 6.035 5.38431 3.94125 9.48793Z" fill="#FF3D00"/>
<path d="M15 28.4167C18.2288 28.4167 21.1625 27.1399 23.3806 25.0635L19.5119 21.6806C18.2147 22.7 16.6297 23.2513 15 23.25C11.7488 23.25 8.98813 21.1078 7.94813 18.1182L3.87188 21.3635C5.94063 25.5466 10.1419 28.4167 15 28.4167Z" fill="#4CAF50"/>
<path d="M27.2569 12.9703H26.25V12.9167H15V18.0833H22.0644C21.5714 19.5148 20.6833 20.7656 19.51 21.6813L19.5119 21.68L23.3806 25.0629C23.1069 25.3199 27.5 21.9583 27.5 15.5C27.5 14.6339 27.4138 13.7885 27.2569 12.9703Z" fill="#1976D2"/>
</svg>
